<svg width="800" height="800" viewBox="0 0 24 24" fill="none" xmlns="http://www.w3.org/2000/svg" transform="rotate(-90)">
  <style>
    path { fill: #000000; }
    @media (prefers-color-scheme: dark) {
      path { fill: #ffffff; }
    }
  </style>
  <path fill-rule="evenodd" clip-rule="evenodd" d="M11.986.764c-5.911 0-10.75 4.597-10.75 10.34 0 2.402.866 4.62 2.315 6.37 1.918 2.383 4.932 3.91 8.301 3.95l.036.013a68 68 0 0 0 1.915.657c1.177.386 2.674.842 3.886 1.095a2.32 2.32 0 0 0 1.72-.328c.478-.31.893-.848.893-1.544 0-.412-.167-.818-.329-1.131a7 7 0 0 0-.602-.941 11 11 0 0 0-.299-.384c2.247-1.88 3.664-4.655 3.664-7.758 0-3.552-1.85-6.671-4.663-8.517-1.74-1.163-3.83-1.822-6.087-1.822m6.378 5.273a.75.75 0 1 0-1.295.758 8.5 8.5 0 0 1 1.167 4.308 8.46 8.46 0 0 1-1.167 4.299.75.75 0 0 0 1.294.758 9.96 9.96 0 0 0 1.373-5.057 10 10 0 0 0-1.372-5.066" />
</svg>